# xmcd
# 
# Track frame offsets:
#     150
#     12646
#     23495
#     34653
#     44119
#     52169
#     61338
#     71495
#     82477
#     93325
#     103180
#     112928
#     124283
#     136881
#     147479
#     157442
#     167466
#     176896
#     191018
#     200936
#     216240
#     226653
#     240242
#     249889
#     263548
#     275095
# 
# Disc length: 3817
# 
# Revision: 5
# Processed by: cddbd v1.5.2PL0 Copyright (c) Steve Scherf et al.
# Submitted via: fre:ac v1.0.31
# 
DISCID=890ee71a
DTITLE=Jim Reeves - Gentleman Jim: The Definitive Jim Reeves Collection [CD2]
DYEAR=2003
DGENRE=Country
TTITLE0=I Love You Because
TTITLE1=Welcome To My World
TTITLE2=How Can I Write On Paper (What I Feel In My Heart)
TTITLE3=There's A Heartache Following Me
TTITLE4=Trying To Forget
TTITLE5=I Won't Forget You
TTITLE6=Is It Really Over?
TTITLE7=Angels Don't Lie
TTITLE8=I Guess I'm Crazy
TTITLE9=SnowFlake
TTITLE10=Is This Me
TTITLE11=Anna Marie
TTITLE12=Blue Side Of Lonesome
TTITLE13=You're The Only Good Thing (That's Happened To Me)
TTITLE14=But You Love Me, Daddy
TTITLE15=I Won't Come In While He's There
TTITLE16=I'm Gonna Change Everything
TTITLE17=This Is It
TTITLE18=When Two Worlds Collide
TTITLE19=The Blizzard
TTITLE20=I'm Getting Better
TTITLE21=I Love You Because (live)
TTITLE22=Bimbo (live)
TTITLE23=Four Walls - Blue Canadian Rockies (live)
TTITLE24=Yonder Comes A Sucker (live)
TTITLE25=Adios Amigo (live)
EXTD=YEAR: 2003
EXTT0=
EXTT1=
EXTT2=
EXTT3=
EXTT4=
EXTT5=
EXTT6=
EXTT7=
EXTT8=
EXTT9=
EXTT10=
EXTT11=
EXTT12=
EXTT13=
EXTT14=
EXTT15=
EXTT16=
EXTT17=
EXTT18=
EXTT19=
EXTT20=
EXTT21=
EXTT22=
EXTT23=
EXTT24=
EXTT25=
PLAYORDER=
